<?xml version="1.0" encoding="UTF-8"?>
<!DOCTYPE svg PUBLIC "-//W3C//DTD SVG 1.1//EN" "http://www.w3.org/Graphics/SVG/1.1/DTD/svg11.dtd">
<!-- Creator: CorelDRAW X7 -->
<svg xmlns="http://www.w3.org/2000/svg" xml:space="preserve" width="450px" height="470px" version="1.1" style="shape-rendering:geometricPrecision; text-rendering:geometricPrecision; image-rendering:optimizeQuality; fill-rule:evenodd; clip-rule:evenodd"
viewBox="0 0 45000000 46999843"
 xmlns:xlink="http://www.w3.org/1999/xlink">
 <defs>
  <style type="text/css">
   <![CDATA[
    .str0 {stroke:#0D53A3;stroke-width:499961}
    .fil2 {fill:none}
    .fil3 {fill:#0D53A3}
    .fil0 {fill:#0D53A3}
    .fil1 {fill:white}
   ]]>
  </style>
 </defs>
 <g id="Capa_x0020_1">
  <metadata id="CorelCorpID_0Corel-Layer"/>
  <path class="fil0" d="M7330394 39049016l30339212 0c441733,0 803150,361417 803150,803149l0 3091536c0,441732 -361417,803149 -803150,803149l-30339212 0c-441733,0 -803150,-361417 -803150,-803149l0 -3091536c0,-441732 361417,-803149 803150,-803149z"/>
  <path class="fil1" d="M17296535 41682165l252756 63898c-52795,207047 -147637,364370 -284645,473031 -137008,108662 -304607,163111 -502796,163111 -204803,0 -371456,-41693 -500078,-125433 -128504,-83386 -226063,-204331 -293032,-362717 -66968,-158622 -100630,-328464 -100630,-510236 0,-198189 37677,-371102 113504,-518740 75827,-147638 183543,-259725 323150,-336496 139724,-76654 293504,-114803 461102,-114803 190630,0 350669,48307 480118,145393 129922,97087 220394,233268 271418,408780l-247441 58582c-43819,-138425 -108189,-239409 -191930,-302362 -83858,-63425 -189330,-94960 -316535,-94960 -145866,0 -268228,35078 -366260,105118 -97913,70039 -167126,164409 -206575,282401 -39921,118347 -59881,240237 -59881,365788 0,161811 23503,303189 70511,423779 47008,121063 120118,211063 219449,270945 99331,59764 206575,89528 322323,89528 141024,0 259843,-40748 357402,-121890 97441,-81614 163582,-202205 198070,-362717zm487323 -258897c0,-315709 85158,-563032 254882,-741733 169843,-178700 388819,-267755 657520,-267755 175984,0 334252,42165 475748,125905 140905,83740 248740,200787 322677,351142 74055,149882 111378,320079 111378,510236 0,192874 -39094,365787 -117047,517913 -78071,152481 -188504,267756 -331181,345827 -143268,78425 -297520,117402 -462874,117402 -179528,0 -339567,-43465 -481063,-129922 -141024,-86456 -248268,-204330 -321024,-354212 -72638,-149410 -109016,-307677 -109016,-474803zm260670 4488c0,229134 61653,409606 184842,541299 123307,131693 278032,197717 464291,197717 189685,0 345355,-66496 468071,-199489 122362,-132992 183544,-321850 183544,-566574 0,-154725 -26103,-289961 -78426,-405237 -52322,-115275 -128976,-204803 -229606,-268228 -101102,-63425 -214134,-95315 -339685,-95315 -178228,0 -331535,61181 -460157,183543 -128622,122363 -192874,326339 -192874,612284zm1890826 922559l0 -1904646 844134 0c169843,0 298819,17362 387047,51496 88229,34134 158741,94370 211536,180827 52677,86457 78898,182244 78898,286890 0,135236 -43938,249094 -131221,341811 -87402,92598 -222165,151181 -404764,176457 66851,31889 117402,63779 152008,94842 73583,67441 143268,152126 208347,253583l329409 518740 -314764 0 -251811 -396378c-73110,-114803 -133819,-202087 -181299,-262913 -47835,-60709 -90472,-102874 -128150,-127205 -37204,-23976 -75826,-40748 -114803,-50551 -28346,-5788 -74882,-8859 -140078,-8859l-291733 0 0 845906 -252756 0zm252756 -1064055l540827 0c115276,0 204803,-11929 269646,-35906 64724,-23504 113858,-61653 147165,-114330 33661,-52323 50551,-109134 50551,-170670 0,-90000 -32362,-164527 -97559,-222637 -65197,-58111 -168071,-86930 -308622,-86930l-602008 0 0 630473zm1668307 1064055l0 -1904646 1375276 0 0 223465 -1122520 0 0 585236 1050709 0 0 223465 -1050709 0 0 649015 1167756 0 0 223465 -1420512 0zm1560118 0l730630 -1904646 277087 0 775394 1904646 -286772 0 -220394 -577205 -801968 0 -206575 577205 -267402 0zm548032 -782008l649016 0 -198662 -528071c-59764,-160512 -105000,-293031 -136535,-397677 -26103,124134 -61181,246024 -105000,366614l-208819 559134zm1432441 782008l0 -1904646 258898 0 999330 1495040 0 -1495040 242008 0 0 1904646 -258898 0 -999330 -1494921 0 1494921 -242008 0zm1846535 -927047c0,-315709 85158,-563032 254882,-741733 169843,-178700 388819,-267755 657520,-267755 175984,0 334252,42165 475748,125905 140905,83740 248740,200787 322677,351142 74055,149882 111378,320079 111378,510236 0,192874 -39094,365787 -117047,517913 -78071,152481 -188504,267756 -331181,345827 -143268,78425 -297520,117402 -462874,117402 -179528,0 -339567,-43465 -481063,-129922 -141024,-86456 -248268,-204330 -321024,-354212 -72638,-149410 -109016,-307677 -109016,-474803zm260670 4488c0,229134 61653,409606 184842,541299 123307,131693 278032,197717 464291,197717 189685,0 345355,-66496 468071,-199489 122363,-132992 183544,-321850 183544,-566574 0,-154725 -26103,-289961 -78426,-405237 -52322,-115275 -128976,-204803 -229606,-268228 -101102,-63425 -214134,-95315 -339685,-95315 -178228,0 -331535,61181 -460157,183543 -128622,122363 -192874,326339 -192874,612284z"/>
  <path class="fil2 str0" d="M22500000 3252992c8809252,0 15950433,7141299 15950433,15950433 0,8809252 -7141181,15950551 -15950433,15950551 -8809252,0 -15950551,-7141299 -15950551,-15950551 0,-8809134 7141299,-15950433 15950551,-15950433z"/>
  <path class="fil3" d="M16358622 18061181l-479409 0 0 2309882 479409 0 0 -2309882zm12282756 0l479528 0 0 2309882 -479528 0 0 -2309882zm-6147402 3743858l0 -354 -7677 -118c-1275708,0 -2323228,1981299 -2437913,4511339l-10548425 0 0 -5321457 2460590 0 0 -889488 3443032 0 0 -2014252c-2143819,-1049292 -3742677,-2566654 -4458898,-4327323 1323189,536102 2825433,978189 4458898,1304409l0 -1038307c-1418032,-807756 -2472284,-1856693 -2992796,-3041811 1228465,460984 2633268,836103 4164922,1103858l323740 -808228 582874 0 0 -490984 551102 0 0 490984 4460551 0 12048 0 4460669 0 0 -490984 550984 0 0 490984 582992 0 323740 808228c1531536,-267755 2936457,-642874 4164804,-1103858 -520512,1185118 -1574646,2234055 -2992678,3041811l0 1038307c1633465,-326220 3135709,-768307 4458898,-1304409 -716339,1760669 -2315079,3278031 -4458898,4327323l0 2014252 3443032 0 0 889488 2460590 0 0 5321457 -10548425 0c-114685,-2530040 -1162323,-4511339 -2438031,-4511339l-7677 118 0 354 -5906 -236 -6142 236zm12048 -1170945l279567 0 0 -370748 -279567 0 -12048 0 -279448 0 0 370748 279448 0 12048 0zm0 -797598l2934212 0 0 -175630 -2934212 0 -12048 0 -2934094 0 0 175630 2934094 0 12048 0zm7576653 470315l-410197 0 0 264213 410197 0 0 -264213zm-3764055 0l-410197 0 0 264213 410197 0 0 -264213zm1881969 0l-410197 0 0 264213 410197 0 0 -264213zm-3764056 0l-410196 0 0 264213 410196 0 0 -264213zm718111 -470315l285590 0 0 276732 -149055 153544 -136535 -153544 0 -276732zm-1887992 0l285590 0 0 276732 -149055 153544 -136535 -153544 0 -276732zm4244645 -3034252l199016 271181 199252 271181 -398268 0 -398386 0 199134 -271181 199252 -271181zm-1312913 0l199134 271181 199134 271181 -398268 0 -398268 0 199134 -271181 199134 -271181zm-1312914 14646l199134 271181 199252 271181 -398386 0 -398267 0 199134 -271181 199133 -271181zm-1312795 -7323l199134 271181 199134 271181 -398268 0 -398268 0 199016 -271181 199252 -271181zm4410354 1284213l294804 0 0 1737637 -294804 0 0 -1737637zm-2057125 10039l1742007 0 0 1732677 -1742007 0 0 -1732677zm-881457 29527l427795 0 0 905906 -427795 0 0 -905906zm-621969 0l427796 0 0 905906 -427796 0 0 -905906zm-621968 0l427795 0 0 905906 -427795 0 0 -905906zm-621851 394725l427796 0 0 511181 -427796 0 0 -511181zm-621968 0l427913 0 0 511181 -427913 0 0 -511181zm-7639252 1778740l410197 0 0 264213 -410197 0 0 -264213zm3764055 0l410197 0 0 264213 -410197 0 0 -264213zm-1881968 0l410078 0 0 264213 -410078 0 0 -264213zm3764055 0l410197 0 0 264213 -410197 0 0 -264213zm-718111 -470315l-285708 0 0 276732 149173 153544 136535 -153544 0 -276732zm1887874 0l-285590 0 0 276732 149173 153544 136417 -153544 0 -276732zm-4244527 -3034252l-199134 271181 -199134 271181 398268 0 398386 0 -199252 -271181 -199134 -271181zm1312913 0l-199134 271181 -199252 271181 398386 0 398268 0 -199134 -271181 -199134 -271181zm1312796 14646l-199134 271181 -199134 271181 398268 0 398267 0 -199015 -271181 -199252 -271181zm1312913 -7323l-199252 271181 -199016 271181 398268 0 398268 0 -199134 -271181 -199134 -271181zm-4410472 1284213l-294804 0 0 1737637 294804 0 0 -1737637zm2057244 10039l-1742126 0 0 1732677 1742126 0 0 -1732677zm881456 29527l-427795 0 0 905906 427795 0 0 -905906zm621969 0l-427914 0 0 905906 427914 0 0 -905906zm621968 0l-427913 0 0 905906 427913 0 0 -905906zm621851 394725l-427914 0 0 511181 427914 0 0 -511181zm621968 0l-427913 0 0 511181 427913 0 0 -511181z"/>
 </g>
</svg>
