<?xml version="1.0" encoding="UTF-8"?>
<!DOCTYPE svg PUBLIC "-//W3C//DTD SVG 1.1//EN" "http://www.w3.org/Graphics/SVG/1.1/DTD/svg11.dtd">
<!-- Creator: CorelDRAW X7 -->
<svg xmlns="http://www.w3.org/2000/svg" xml:space="preserve" width="450px" height="470px" version="1.1" style="shape-rendering:geometricPrecision; text-rendering:geometricPrecision; image-rendering:optimizeQuality; fill-rule:evenodd; clip-rule:evenodd"
viewBox="0 0 45000000 46999843"
 xmlns:xlink="http://www.w3.org/1999/xlink">
 <defs>
  <style type="text/css">
   <![CDATA[
    .str0 {stroke:#DB0000;stroke-width:499961}
    .fil2 {fill:none}
    .fil0 {fill:#DB0000}
    .fil1 {fill:white}
    .fil3 {fill:#DB0000;fill-rule:nonzero}
   ]]>
  </style>
 </defs>
 <g id="Capa_x0020_1">
  <metadata id="CorelCorpID_0Corel-Layer"/>
  <path class="fil0" d="M7330394 39049016l30339212 0c441733,0 803150,361417 803150,803149l0 3091536c0,441732 -361417,803149 -803150,803149l-30339212 0c-441733,0 -803150,-361417 -803150,-803149l0 -3091536c0,-441732 361417,-803149 803150,-803149z"/>
  <path class="fil1" d="M16400906 41809488l226181 -31063c6141,145866 33189,245551 81496,299646 48307,53622 115748,80669 201260,80669 62952,0 117519,-14527 163228,-43346 45590,-29292 77598,-68740 94842,-118465 17244,-49606 25748,-129449 25748,-238464l0 -1312796 252638 0 0 1297677c0,159213 -19016,282402 -57638,370276 -38504,87284 -99330,153780 -183070,199843 -83386,45708 -181300,68740 -293504,68740 -167126,0 -294804,-47835 -383504,-144095 -88701,-96141 -131221,-238937 -127677,-428622zm1248897 540827l730630 -1904646 277087 0 775393 1904646 -286771 0 -220394 -577205 -801968 0 -206575 577205 -267402 0zm548032 -782008l649015 0 -198661 -528071c-59764,-160512 -105000,-293031 -136535,-397677 -26103,124134 -61182,246024 -105000,366614l-208819 559134zm1435039 782008l0 -1904646 719173 0c126260,0 222992,6260 289961,18189 93543,15591 171968,45236 235394,88701 63425,43819 114330,105118 152952,183543 38504,78426 57638,164882 57638,259370 0,161339 -51496,298347 -154724,410079 -102874,112205 -289488,168071 -559134,168071l-488504 0 0 776693 -252756 0zm252756 -1000158l492047 0c163229,0 278504,-30236 347126,-90944 68386,-60709 102520,-145867 102520,-256182 0,-79370 -19961,-147637 -60354,-204448 -40394,-56693 -93544,-94370 -159095,-112559 -42638,-11103 -121063,-16890 -235039,-16890l-487205 0 0 681023zm1444370 73111c0,-315709 85157,-563032 254882,-741733 169842,-178700 388819,-267755 657520,-267755 175984,0 334252,42165 475748,125905 140905,83740 248740,200787 322677,351142 74055,149882 111378,320079 111378,510236 0,192874 -39095,365787 -117048,517913 -78070,152481 -188503,267756 -331181,345827 -143267,78425 -297519,117402 -462874,117402 -179527,0 -339567,-43465 -481063,-129922 -141023,-86456 -248267,-204330 -321023,-354212 -72638,-149410 -109016,-307677 -109016,-474803zm260669 4488c0,229134 61654,409606 184843,541299 123307,131693 278031,197717 464291,197717 189685,0 345354,-66496 468071,-199489 122362,-132992 183543,-321850 183543,-566574 0,-154725 -26102,-289961 -78425,-405237 -52323,-115275 -128976,-204803 -229606,-268228 -101103,-63425 -214134,-95315 -339685,-95315 -178229,0 -331536,61181 -460158,183543 -128622,122363 -192874,326339 -192874,612284zm1882914 922559l0 -1904646 258897 0 999331 1495040 0 -1495040 242008 0 0 1904646 -258898 0 -999330 -1494921 0 1494921 -242008 0zm1928976 0l0 -1904646 1375276 0 0 223465 -1122520 0 0 585236 1050709 0 0 223465 -1050709 0 0 649015 1167756 0 0 223465 -1420512 0zm518740 -2021693l170197 -364370 308622 0 -284646 364370 -194173 0zm1167756 1409882l236693 -21260c11102,95787 37323,174213 78543,235866 41221,61181 105000,110788 191457,148937 86457,37677 184016,56693 292205,56693 96260,0 180945,-14173 254527,-42992 73583,-28819 128150,-68268 164055,-118346 35906,-50079 54095,-104646 54095,-163111 0,-59409 -17362,-111260 -51969,-156141 -34488,-44292 -91771,-81496 -171496,-112087 -51023,-19488 -164055,-50551 -339212,-92717 -175158,-42047 -297520,-81496 -367559,-118818 -90827,-47835 -158268,-107245 -202559,-177756 -44764,-70512 -66969,-149882 -66969,-237166 0,-96614 27520,-186614 82087,-270000 54449,-83858 133819,-147165 238937,-190630 104645,-43464 221220,-65196 349370,-65196 140905,0 265512,22559 373228,68267 107717,45236 190630,112205 248740,200788 58111,88228 89174,188504 93544,300236l-242008 18543c-12874,-120118 -56811,-210945 -131693,-272126 -75000,-61653 -185788,-92244 -332126,-92244 -152480,0 -263740,27874 -333425,83740 -69567,55866 -104528,123307 -104528,202205 0,68268 24803,124606 73937,168898 48780,43937 175158,89527 379961,135708 204921,46536 345354,86811 421653,121418 110433,51023 192402,115275 245197,193818 52795,77953 78898,167953 78898,270000 0,101457 -28819,196300 -86929,285945 -57992,89528 -140906,159095 -249567,208819 -108662,49607 -230551,74410 -366614,74410 -172087,0 -316182,-25276 -432284,-75355 -116575,-50078 -207520,-125433 -273543,-226535 -66496,-100630 -101103,-214606 -104646,-341811z"/>
  <path class="fil2 str0" d="M22500000 3252992c8809252,0 15950433,7141299 15950433,15950433 0,8809252 -7141181,15950551 -15950433,15950551 -8809252,0 -15950551,-7141299 -15950551,-15950551 0,-8809134 7141299,-15950433 15950551,-15950433z"/>
  <path class="fil3" d="M21610748 11855079l0 -1030158 1764921 0 0 1030158 -1764921 0zm1984488 -1634528l0 0 -343582 0c-6615,-33779 -13819,-68858 -20788,-103228 -6614,-34016 -20197,-68150 -34016,-102166 -116693,-275433 -391299,-467834 -707244,-467834 -316063,0 -590787,192401 -707362,467834 -13701,34016 -27401,68150 -34370,102166 -6850,34370 -13701,69449 -20197,103228l-364606 0 0 350433 2232165 0 0 -350433zm3015118 3722362l0 0 762166 -610866c-89528,0 -2911890,-364370 -2911890,-1257165l-3928228 0c0,899764 -2918859,1257165 -2918859,1257165l659646 610866 8337165 0zm-2198031 219567l0 0 -3742441 0 0 604370 3742441 0 0 -604370zm48307 2334922l0 0 -3928228 0c0,900000 -2918859,1256811 -2918859,1256811l659646 611456 8337165 0 762166 -611456c-89528,0 -2911890,-363780 -2911890,-1256811zm-3790748 -1538386l0 0 3742441 0 198779 0 0 13582 0 185788 0 961417 0 171496 0 27520 -198779 0 -3742441 0 -199252 0 0 -27520 0 -171496 0 -961417 0 -185788 0 -13582 199252 0zm0 1160787l0 0 3742441 0 0 -157795 -3742441 0 0 157795zm3742441 -961417l0 0 -3742441 0 0 185197 3742441 0 0 -185197zm-3742441 569882l0 0 3742441 0 0 -158386 -3742441 0 0 158386zm3742441 2850354l0 0 -3742441 0 0 603780 3742441 0 0 -603780zm-6798780 3584764l0 0 659646 611338 8337165 0 762166 -611338c-89528,0 -2911890,-364016 -2911890,-1256811l-3928228 0c6850,906968 -2918859,1256811 -2918859,1256811zm3056339 -2795433l0 0 3742441 0 198779 0 0 13582 0 185552 0 961535 0 171850 0 27520 -198779 0 -3742441 0 -199252 0 0 -20551 0 -171850 0 -961418 0 -185787 0 -13583 199252 0 0 -6850zm0 1167638l0 0 3742441 0 0 -158032 -3742441 0 0 158032zm3742441 -961418l0 0 -3742441 0 0 185315 3742441 0 0 -185315zm-3742441 569882l0 0 3742441 0 0 -158031 -3742441 0 0 158031zm5101890 9752362l0 0 0 -2493071 -6551103 0 0 2493071 1688977 0 0 -1840984 3173267 0 0 1840984 1688859 0zm-1895079 0l0 0 0 -1641968 -2767559 0 0 1641968 2767559 0zm2973661 198898l0 0 -878976 0 -1888465 0 -103110 0 -2973071 0 -103937 0 -1888464 0 -878268 0 0 1668543 8714291 0 0 -1668543zm-2438031 -7094291l0 0 -3742441 0 0 604488 3742441 0 0 -604488zm-6139134 4196220l0 0 741142 0 103346 0 102992 0 6551103 0 103464 0 103229 0 645354 0 762520 -610748c-89882,0 -2911890,-364488 -2911890,-1257520l-3928583 0c0,900118 -2918740,1257520 -2918740,1257520l646063 610748zm2396693 -3406299l0 0 3742441 0 198779 0 0 13583 0 185551 0 961299 0 171850 0 27166 -198779 0 -3742441 0 -199252 0 0 -27166 0 -171850 0 -961299 0 -185551 0 -13583 199252 0zm0 1160433l0 0 3742441 0 0 -158032 -3742441 0 0 158032zm3742441 -961299l0 0 -3742441 0 0 185197 3742441 0 0 -185197zm-3742441 576732l0 0 3742441 0 0 -158150 -3742441 0 0 158150zm2588504 -15486142l0 0 -1530709 0 0 315473 1537205 0 0 -315473 -6496 0zm0 -514842l0 0 -590079 0 0 -3399449c164764,-68976 275079,-226654 275079,-419173 0,-247087 -206575,-453071 -453780,-453071 -247323,0 -453071,205984 -453071,453071 0,185197 117048,350197 274371,419173l0 3399449 -583229 0 0 315827 1537205 0 0 -315827 -6496 0z"/>
 </g>
</svg>
