<?xml version="1.0" standalone="no"?>
<!DOCTYPE svg PUBLIC "-//W3C//DTD SVG 20010904//EN"
 "http://www.w3.org/TR/2001/REC-SVG-20010904/DTD/svg10.dtd">
<svg version="1.0" xmlns="http://www.w3.org/2000/svg"
 width="960.000000pt" height="465.000000pt" viewBox="0 0 960.000000 465.000000"
 preserveAspectRatio="xMidYMid meet">

<g transform="translate(0.000000,465.000000) scale(0.100000,-0.100000)"
fill="#000000" stroke="none">
<path d="M5508 3617 c-79 -29 -113 -52 -167 -113 -65 -74 -86 -139 -86 -269 0
-100 3 -116 29 -172 35 -76 113 -153 193 -191 53 -24 69 -27 173 -27 109 0
119 2 180 32 36 18 82 49 103 71 l37 38 -54 60 -54 59 -34 -32 c-98 -94 -255
-97 -340 -7 -40 43 -61 101 -61 170 -1 81 25 145 74 188 77 66 177 72 274 16
29 -16 62 -30 74 -30 12 0 42 19 67 42 l45 41 -38 39 c-21 22 -67 53 -103 71
-55 26 -79 31 -155 34 -76 3 -101 0 -157 -20z"/>
<path d="M6325 3626 c-114 -36 -194 -105 -247 -214 -31 -63 -33 -73 -33 -172
0 -102 1 -109 38 -182 43 -88 102 -146 187 -187 49 -23 67 -26 165 -26 99 0
116 3 168 27 80 38 158 115 193 191 27 57 29 71 29 177 0 103 -3 121 -26 170
-48 103 -127 172 -237 209 -70 24 -174 27 -237 7z m180 -157 c60 -16 129 -92
145 -158 26 -109 -10 -222 -87 -275 -50 -34 -137 -46 -197 -26 -89 29 -146
119 -146 231 0 166 130 270 285 228z"/>
<path d="M480 2977 c0 -629 1 -655 21 -727 61 -223 227 -388 444 -445 50 -13
155 -15 702 -15 l643 0 0 920 0 920 -905 0 -905 0 0 -653z m1501 38 l0 -300
-131 -3 -130 -3 0 171 0 170 -165 0 -165 0 0 135 0 135 295 -2 296 -3 0 -300z"/>
<path d="M2890 3240 l0 -391 228 3 227 3 54 30 c69 38 103 88 109 160 6 78 -4
118 -44 171 -35 46 -35 46 -16 68 34 37 46 70 46 131 -1 66 -16 105 -61 147
-59 56 -89 62 -325 66 l-218 4 0 -392z m394 216 c41 -17 54 -57 31 -93 -23
-35 -54 -43 -161 -43 l-94 0 0 75 0 75 95 0 c59 0 108 -5 129 -14z m30 -307
c34 -27 37 -86 5 -115 -18 -16 -40 -20 -140 -22 l-119 -4 0 81 0 81 114 0 c99
0 117 -3 140 -21z"/>
<path d="M3863 3613 c-3 -10 -37 -99 -75 -198 -38 -99 -92 -238 -119 -310 -43
-110 -71 -182 -96 -242 -4 -10 17 -13 85 -13 l89 0 29 75 29 75 145 0 145 0
30 -75 30 -75 87 0 87 0 -29 78 c-16 42 -54 140 -83 217 -30 77 -80 208 -111
290 -70 183 -81 195 -172 195 -53 0 -66 -3 -71 -17z m133 -343 l41 -110 -83 0
c-46 0 -84 3 -84 6 0 14 74 214 79 214 4 0 24 -50 47 -110z"/>
<path d="M4440 3240 l0 -390 85 0 85 0 2 250 3 250 139 -235 c76 -130 148
-242 159 -250 15 -11 48 -15 109 -15 l88 0 0 390 0 390 -85 0 -85 0 -2 -252
-3 -251 -139 237 c-76 130 -148 243 -160 251 -14 10 -48 15 -108 15 l-88 0 0
-390z"/>
<path d="M4223 2565 c-80 -22 -123 -48 -181 -109 -84 -89 -97 -126 -97 -281 0
-129 0 -130 34 -193 40 -74 100 -130 180 -169 52 -26 65 -28 181 -28 117 0
128 2 178 28 58 30 132 93 132 111 0 9 -96 116 -104 116 -2 0 -21 -16 -42 -36
-51 -49 -91 -64 -166 -64 -103 0 -185 56 -216 149 -18 51 -14 150 7 196 44 97
154 151 260 125 28 -6 62 -21 76 -32 13 -10 40 -22 59 -25 30 -5 40 0 77 34
41 39 42 40 25 65 -27 41 -115 96 -181 113 -72 18 -153 18 -222 0z"/>
<path d="M7095 2567 c-77 -20 -125 -50 -183 -111 -63 -67 -88 -119 -102 -213
-26 -188 56 -350 219 -430 52 -26 65 -28 181 -28 116 0 129 2 175 27 58 31
135 94 135 111 0 10 -96 117 -104 117 -2 0 -21 -16 -42 -36 -51 -49 -91 -64
-166 -64 -166 0 -266 148 -217 323 11 42 68 111 108 131 70 36 179 27 242 -20
48 -35 82 -31 131 14 39 37 40 40 26 61 -24 34 -100 89 -148 107 -60 21 -192
27 -255 11z"/>
<path d="M2890 2181 l0 -392 83 3 82 3 3 116 3 116 112 5 c163 7 245 49 300
153 32 61 31 184 -3 245 -29 51 -93 104 -148 121 -20 6 -126 14 -234 16 l-198
5 0 -391z m398 202 c36 -27 48 -63 36 -110 -14 -56 -54 -75 -170 -81 l-94 -5
0 113 0 113 101 -5 c80 -4 106 -9 127 -25z"/>
<path d="M3630 2180 l0 -391 83 3 82 3 0 385 0 385 -82 3 -83 3 0 -391z"/>
<path d="M4795 2558 c-3 -7 -4 -182 -3 -388 l3 -375 85 0 85 0 3 158 3 158
152 -3 152 -3 3 -158 3 -158 82 3 82 3 0 385 0 385 -44 3 c-53 4 -94 -12 -110
-41 -6 -12 -12 -76 -13 -142 l-3 -120 -152 -3 -152 -3 -3 153 -3 153 -83 3
c-60 2 -84 -1 -87 -10z"/>
<path d="M5635 2558 c-3 -7 -4 -182 -3 -388 l3 -375 85 0 85 0 0 385 0 385
-83 3 c-60 2 -84 -1 -87 -10z"/>
<path d="M6000 2180 l0 -391 83 3 82 3 0 248 c0 209 2 246 13 230 8 -10 70
-115 139 -233 68 -118 134 -223 145 -232 16 -14 39 -18 114 -18 l94 0 -2 388
-3 387 -82 3 -83 3 -2 -258 -3 -257 -81 139 c-45 77 -104 181 -133 230 -28 50
-65 102 -82 118 -27 25 -35 27 -114 27 l-85 0 0 -390z"/>
<path d="M7665 2557 c-3 -6 -4 -181 -3 -387 l3 -375 82 -3 82 -3 3 158 3 158
158 3 157 3 0 -161 0 -160 85 0 85 0 -2 388 -3 387 -39 3 c-52 4 -81 -4 -106
-30 -18 -20 -20 -35 -20 -150 l0 -129 -157 3 -158 3 -3 153 -3 152 -80 0 c-55
0 -81 -4 -84 -13z"/>
<path d="M8725 2538 c-8 -18 -47 -116 -85 -218 -39 -102 -89 -230 -110 -285
-80 -206 -90 -232 -90 -239 0 -4 39 -5 87 -4 l88 3 26 70 27 70 147 0 148 0
26 -70 27 -70 88 -3 c103 -3 100 -24 26 168 -140 362 -189 489 -201 524 -22
61 -59 86 -130 86 -57 0 -60 -1 -74 -32z m134 -326 c23 -56 41 -107 41 -112 0
-6 -36 -10 -85 -10 -47 0 -85 1 -85 3 0 17 81 230 85 225 2 -2 22 -49 44 -106z"/>
<path d="M4665 1331 c-3 -5 2 -16 10 -24 8 -9 15 -26 15 -40 0 -23 -3 -24 -47
-20 -41 4 -51 1 -71 -20 -42 -45 -42 -158 0 -197 18 -16 34 -19 106 -17 60 1
87 6 90 15 2 7 -5 16 -17 19 -20 5 -21 11 -21 149 l0 144 -29 0 c-17 0 -32 -4
-36 -9z m6 -121 c16 -9 19 -22 19 -80 0 -60 -3 -71 -21 -80 -52 -29 -99 30
-85 105 11 57 44 78 87 55z"/>
<path d="M5300 1311 c0 -33 9 -44 29 -32 18 12 10 55 -11 59 -14 3 -18 -3 -18
-27z"/>
<path d="M2923 1318 c-25 -12 -45 -60 -36 -86 12 -35 48 -63 99 -78 29 -8 58
-21 64 -29 18 -22 3 -64 -26 -75 -37 -15 -101 -2 -107 21 -9 32 -37 23 -37
-11 0 -37 27 -50 101 -50 54 0 103 20 113 45 22 59 -9 115 -76 134 -63 18 -88
38 -88 66 0 32 39 49 92 40 29 -5 38 -12 38 -26 0 -10 7 -19 15 -19 21 0 21
66 -1 74 -25 10 -127 6 -151 -6z"/>
<path d="M3485 1281 c-3 -16 -13 -32 -21 -35 -19 -7 -18 -26 1 -26 12 0 15
-15 15 -77 0 -103 13 -127 68 -131 33 -2 42 0 42 12 0 10 -9 16 -25 16 -34 0
-45 27 -45 109 l0 71 35 0 c24 0 35 5 35 15 0 10 -11 15 -35 15 -32 0 -35 2
-35 30 0 39 -26 40 -35 1z"/>
<path d="M4077 1303 c-4 -3 -7 -17 -7 -30 0 -14 -6 -23 -15 -23 -8 0 -15 -7
-15 -15 0 -8 7 -15 15 -15 12 0 15 -16 15 -83 0 -103 13 -127 71 -127 28 0 39
4 39 15 0 9 -9 15 -23 15 -38 0 -47 19 -47 102 l0 78 35 0 c24 0 35 5 35 15 0
10 -11 15 -35 15 -32 0 -35 2 -35 30 0 28 -17 40 -33 23z"/>
<path d="M5134 1281 c-4 -17 -12 -32 -20 -35 -19 -7 -18 -26 1 -26 12 0 15
-16 15 -83 0 -103 13 -127 71 -127 28 0 39 4 39 15 0 9 -9 15 -23 15 -38 0
-47 19 -47 102 l0 78 35 0 c24 0 35 5 35 15 0 10 -11 15 -35 15 -32 0 -35 2
-35 30 0 40 -28 41 -36 1z"/>
<path d="M3189 1235 c-65 -35 -64 -176 2 -210 47 -25 149 -18 149 10 0 8 -18
12 -60 11 -63 -1 -82 9 -95 52 -6 22 -5 22 74 22 76 0 81 1 86 23 7 28 -10 76
-33 93 -23 18 -90 17 -123 -1z m105 -37 c29 -41 21 -48 -49 -48 -36 0 -65 4
-65 9 0 4 9 20 21 35 26 33 71 35 93 4z"/>
<path d="M3620 1230 c0 -11 7 -20 15 -20 12 0 15 -16 15 -80 0 -64 -3 -80 -15
-80 -8 0 -15 -9 -15 -20 0 -17 7 -20 50 -20 43 0 50 3 50 20 0 11 -7 20 -15
20 -13 0 -15 13 -13 72 l3 72 40 12 c46 12 62 44 23 44 -13 0 -33 -7 -45 -15
-19 -13 -22 -13 -27 0 -3 9 -18 15 -36 15 -23 0 -30 -4 -30 -20z"/>
<path d="M3833 1243 c-7 -2 -13 -18 -13 -34 0 -34 24 -40 40 -9 7 13 21 20 38
20 34 0 52 -16 52 -47 0 -20 -5 -23 -44 -23 -56 0 -96 -29 -96 -71 0 -55 66
-88 120 -59 13 7 21 7 25 0 3 -5 19 -10 36 -10 22 0 29 5 29 20 0 11 -7 20
-15 20 -12 0 -15 16 -15 83 0 104 -11 117 -91 116 -30 0 -60 -3 -66 -6z m117
-158 c0 -31 -3 -35 -35 -41 -41 -7 -65 8 -65 41 0 27 11 33 63 34 36 1 37 0
37 -34z"/>
<path d="M4243 1243 c-7 -2 -13 -18 -13 -34 0 -34 24 -40 40 -9 20 38 90 18
90 -25 0 -23 -4 -25 -44 -25 -59 0 -96 -29 -96 -75 0 -54 66 -84 120 -55 13 7
21 7 25 0 3 -5 19 -10 36 -10 22 0 29 5 29 20 0 11 -7 20 -15 20 -12 0 -15 16
-15 84 0 76 -2 86 -22 100 -21 15 -107 21 -135 9z m115 -155 c-6 -59 -88 -66
-96 -8 -5 29 12 40 61 40 37 0 38 -1 35 -32z"/>
<path d="M4841 1236 c-33 -18 -50 -53 -51 -104 0 -53 20 -94 55 -110 48 -22
166 -10 141 15 -4 4 -32 8 -61 8 -57 0 -77 12 -90 53 -6 22 -5 22 74 22 70 0
81 2 83 18 6 72 -25 112 -86 112 -23 -1 -52 -7 -65 -14z m106 -45 c6 -14 10
-29 7 -33 -7 -11 -124 -10 -124 1 0 4 10 20 21 35 28 35 77 33 96 -3z"/>
<path d="M5270 1231 c0 -12 7 -21 15 -21 12 0 15 -16 15 -80 0 -64 -3 -80 -15
-80 -8 0 -15 -9 -15 -20 0 -17 7 -20 44 -20 49 0 68 16 43 35 -13 9 -17 33
-19 106 l-3 94 -32 3 c-28 3 -33 0 -33 -17z"/>
<path d="M5400 1045 c0 -29 3 -36 18 -33 11 2 17 13 17 33 0 20 -6 31 -17 33
-15 3 -18 -4 -18 -33z"/>
</g>
</svg>
