<?xml version="1.0" encoding="UTF-8"?>
<!DOCTYPE svg PUBLIC "-//W3C//DTD SVG 1.1//EN" "http://www.w3.org/Graphics/SVG/1.1/DTD/svg11.dtd">
<!-- Creator: CorelDRAW X7 -->
<svg xmlns="http://www.w3.org/2000/svg" xml:space="preserve" width="450px" height="470px" version="1.1" style="shape-rendering:geometricPrecision; text-rendering:geometricPrecision; image-rendering:optimizeQuality; fill-rule:evenodd; clip-rule:evenodd"
viewBox="0 0 45000000 46999843"
 xmlns:xlink="http://www.w3.org/1999/xlink">
 <defs>
  <style type="text/css">
   <![CDATA[
    .str0 {stroke:#002E7B;stroke-width:499961}
    .fil0 {fill:none}
    .fil1 {fill:#002E7B}
    .fil2 {fill:white}
    .fil3 {fill:#002E7B;fill-rule:nonzero}
   ]]>
  </style>
 </defs>
 <g id="Capa_x0020_1">
  <metadata id="CorelCorpID_0Corel-Layer"/>
  <path class="fil0 str0" d="M22500000 3252992c8809252,0 15950433,7141299 15950433,15950433 0,8809252 -7141181,15950551 -15950433,15950551 -8809252,0 -15950551,-7141299 -15950551,-15950551 0,-8809134 7141299,-15950433 15950551,-15950433z"/>
  <path class="fil1" d="M7330394 39049016l30339212 0c441733,0 803150,361417 803150,803149l0 3091536c0,441732 -361417,803149 -803150,803149l-30339212 0c-441733,0 -803150,-361417 -803150,-803149l0 -3091536c0,-441732 361417,-803149 803150,-803149z"/>
  <path class="fil2" d="M16322835 42350315l0 -1904646 1284803 0 0 223465 -1032166 0 0 593268 893859 0 0 223346 -893859 0 0 864567 -252637 0zm1616811 0l0 -1904646 844134 0c169842,0 298818,17362 387047,51496 88228,34134 158740,94370 211535,180827 52677,86457 78898,182244 78898,286890 0,135236 -43937,249094 -131221,341811 -87401,92598 -222165,151181 -404763,176457 66850,31889 117401,63779 152007,94842 73583,67441 143268,152126 208347,253583l329409 518740 -314763 0 -251811 -396378c-73111,-114803 -133819,-202087 -181300,-262913 -47834,-60709 -90472,-102874 -128149,-127205 -37205,-23976 -75827,-40748 -114803,-50551 -28347,-5788 -74882,-8859 -140079,-8859l-291732 0 0 845906 -252756 0zm252756 -1064055l540826 0c115276,0 204803,-11929 269646,-35906 64724,-23504 113858,-61653 147165,-114330 33662,-52323 50552,-109134 50552,-170670 0,-90000 -32363,-164527 -97560,-222637 -65196,-58111 -168070,-86930 -308622,-86930l-602007 0 0 630473zm1454173 1064055l730630 -1904646 277086 0 775394 1904646 -286772 0 -220393 -577205 -801969 0 -206575 577205 -267401 0zm548031 -782008l649016 0 -198661 -528071c-59764,-160512 -105000,-293031 -136536,-397677 -26102,124134 -61181,246024 -105000,366614l-208819 559134zm1432441 782008l0 -1904646 258898 0 999331 1495040 0 -1495040 242007 0 0 1904646 -258897 0 -999331 -1494921 0 1494921 -242008 0zm3280276 -668150l252756 63898c-52796,207047 -147638,364370 -284646,473031 -137008,108662 -304606,163111 -502795,163111 -204803,0 -371457,-41693 -500079,-125433 -128504,-83386 -226063,-204331 -293031,-362717 -66969,-158622 -100630,-328464 -100630,-510236 0,-198189 37677,-371102 113504,-518740 75826,-147638 183543,-259725 323149,-336496 139725,-76654 293504,-114803 461103,-114803 190629,0 350669,48307 480118,145393 129921,97087 220393,233268 271417,408780l-247441 58582c-43819,-138425 -108189,-239409 -191929,-302362 -83858,-63425 -189331,-94960 -316536,-94960 -145866,0 -268228,35078 -366259,105118 -97914,70039 -167126,164409 -206575,282401 -39921,118347 -59882,240237 -59882,365788 0,161811 23504,303189 70512,423779 47008,121063 120118,211063 219449,270945 99330,59764 206574,89528 322322,89528 141024,0 259843,-40748 357402,-121890 97441,-81614 163583,-202205 198071,-362717zm569764 668150l0 -1904646 1375275 0 0 223465 -1122519 0 0 585236 1050708 0 0 223465 -1050708 0 0 649015 1167755 0 0 223465 -1420511 0zm518740 -2021693l170197 -364370 308622 0 -284646 364370 -194173 0zm1167756 1409882l236693 -21260c11102,95787 37322,174213 78543,235866 41220,61181 105000,110788 191457,148937 86456,37677 184015,56693 292204,56693 96260,0 180945,-14173 254528,-42992 73583,-28819 128149,-68268 164055,-118346 35906,-50079 54094,-104646 54094,-163111 0,-59409 -17362,-111260 -51968,-156141 -34488,-44292 -91772,-81496 -171496,-112087 -51024,-19488 -164055,-50551 -339213,-92717 -175157,-42047 -297519,-81496 -367559,-118818 -90827,-47835 -158267,-107245 -202559,-177756 -44764,-70512 -66968,-149882 -66968,-237166 0,-96614 27519,-186614 82086,-270000 54449,-83858 133819,-147165 238937,-190630 104646,-43464 221221,-65196 349370,-65196 140906,0 265512,22559 373229,68267 107716,45236 190630,112205 248740,200788 58110,88228 89173,188504 93543,300236l-242008 18543c-12874,-120118 -56811,-210945 -131693,-272126 -75000,-61653 -185787,-92244 -332126,-92244 -152480,0 -263740,27874 -333425,83740 -69567,55866 -104527,123307 -104527,202205 0,68268 24803,124606 73937,168898 48779,43937 175157,89527 379960,135708 204922,46536 345355,86811 421654,121418 110433,51023 192401,115275 245197,193818 52795,77953 78897,167953 78897,270000 0,101457 -28819,196300 -86929,285945 -57992,89528 -140905,159095 -249567,208819 -108661,49607 -230551,74410 -366614,74410 -172086,0 -316181,-25276 -432283,-75355 -116575,-50078 -207520,-125433 -273544,-226535 -66496,-100630 -101102,-214606 -104645,-341811z"/>
  <path class="fil3" d="M20956417 18870709c673583,-2890158 1156181,-6352205 1162441,-10321654l775158 0c6141,3969449 489094,7431496 1162204,10321654l-3099803 0zm4509567 4751456l0 0c-317362,-864212 -634724,-1830000 -933661,-2890748l-4058977 0c-297992,1060748 -615708,2020512 -933307,2890748l5925945 0zm-6669094 1867323l0 0c-1378465,3188386 -2743937,5042717 -3036142,5417481l3188622 0c0,-6378 0,-12402 0,-25394 0,-1956260 1594488,-3550630 3550866,-3550630 1956378,0 3550630,1594370 3550630,3550630 0,6378 0,12992 0,25394l3188622 0c-285827,-374764 -1652008,-2229095 -3036260,-5417481l-7406338 0zm56929 -241535l0 0 12756 69685 6142 0 7266968 0 6024 0 12637 -63189 12756 -83268 209882 -1377756 -756141 0 -44292 0 -44173 0 -6053504 0 -44646 0 -44409 0 -755669 0 209173 1371732 6496 82796zm2020039 -6205984l0 0 -50787 0 -514370 0 196890 1270275 19133 114803 12874 95079 6260 37795 3944292 0 12637 -88819 19134 -114212 203032 -1314921 -533386 0 -50669 0 -38386 0 -3182008 0 -44646 0zm971929 -10652008l0 0 1321182 0 0 -1377756 -1321182 0 0 1377756zm457559 -2890158l0 0 0 1340669 399922 0 0 -1340669 -399922 0z"/>
 </g>
</svg>
