<?xml version="1.0" encoding="UTF-8"?>
<!DOCTYPE svg PUBLIC "-//W3C//DTD SVG 1.1//EN" "http://www.w3.org/Graphics/SVG/1.1/DTD/svg11.dtd">
<!-- Creator: CorelDRAW X7 -->
<svg xmlns="http://www.w3.org/2000/svg" xml:space="preserve" width="450px" height="470px" version="1.1" style="shape-rendering:geometricPrecision; text-rendering:geometricPrecision; image-rendering:optimizeQuality; fill-rule:evenodd; clip-rule:evenodd"
viewBox="0 0 45000000 46999843"
 xmlns:xlink="http://www.w3.org/1999/xlink">
 <defs>
  <style type="text/css">
   <![CDATA[
    .str0 {stroke:#FF3636;stroke-width:624921}
    .fil3 {fill:none}
    .fil1 {fill:#FEFEFE}
    .fil0 {fill:#FF3636}
    .fil2 {fill:#FF3636}
    .fil4 {fill:white}
   ]]>
  </style>
 </defs>
 <g id="Capa_x0020_1">
  <metadata id="CorelCorpID_0Corel-Layer"/>
  <g id="_837333328">
   <g>
    <path class="fil0" d="M18714803 30908740l0 1368543 7486772 0 236 -1368543 -808819 -6614 -25984 -11210433 217559 -102520c6260,-729449 -42992,-3770551 2244,-4360039 21850,-283465 95197,-176693 63898,-524528l-492402 -26338c-20433,-723189 -26457,-533268 -297874,-1080237 -337559,-680433 -882520,-1426653 -883937,-1955196 -1181,-413386 71221,-1004646 -56339,-1360512 -499251,-1393347 -1015866,-2818937 -1394763,-4277008l-135709 945c-374409,1402205 -870236,2915669 -1377638,4240394 -133582,348543 -76181,868700 -75827,1292362 473,683858 -457795,1207913 -863740,2022638 -271771,545315 -293622,390354 -314055,1120984l-492756 12283c-30472,351142 30945,237992 61418,487087l6968 4407165c111142,68504 23032,42756 213898,47362l590 11266536 -833740 5669z"/>
    <circle class="fil1" cx="22465195" cy="17257914" r="2271270"/>
    <circle class="fil0" cx="22465195" cy="17257914" r="321247"/>
    <rect class="fil2" transform="matrix(0.0865262 -0.14413 0.123576 0.107693 2.15467E+007 1.66417E+007)" width="1171890" height="7500000" rx="585945" ry="585945"/>
    <rect class="fil2" transform="matrix(-0.116678 -0.134692 -0.134692 0.116678 2.36502E+007 1.63664E+007)" width="1171890" height="7500000" rx="585945" ry="585945"/>
   </g>
   <path class="fil3 str0" d="M22458307 3108780c8854606,0 16032520,7178031 16032520,16032401 0,8854606 -7177914,16032520 -16032520,16032520 -8854488,0 -16032520,-7177914 -16032520,-16032520 0,-8854370 7178032,-16032401 16032520,-16032401z"/>
  </g>
  <path class="fil0" d="M7586102 38992441l29744410 0c433110,0 787441,354331 787441,787441l0 3030827c0,433110 -354331,787441 -787441,787441l-29744410 0c-433110,0 -787441,-354331 -787441,-787441l0 -3030827c0,-433110 354331,-787441 787441,-787441z"/>
  <path class="fil4" d="M17864173 42229016l0 -1867323 247677 0 0 1867323 -247677 0zm680197 0l0 -1867323 253819 0 979724 1465748 0 -1465748 237284 0 0 1867323 -253819 0 -979843 -1465630 0 1465630 -237165 0zm2759528 -732874l0 -219095 790275 0 0 692008c-121299,96614 -246496,169488 -375590,218268 -129095,48661 -261614,72992 -397205,72992 -183425,0 -349843,-39095 -499961,-117756 -149409,-78307 -262795,-192047 -338976,-340276 -76535,-148700 -114685,-314763 -114685,-497716 0,-181654 37795,-351142 113858,-509055 76063,-157205 185079,-274134 327638,-350315 142677,-76536 306850,-114685 492992,-114685 134764,0 256772,21732 366024,65669 109015,43819 194645,104646 256299,182480 62244,78189 109134,180355 141260,306024l-222874 60827c-28229,-94725 -63071,-169606 -104410,-224173 -41693,-54449 -100748,-97914 -178110,-130512 -77008,-32599 -162638,-49134 -257008,-49134 -112559,0 -209882,17362 -292441,51732 -82086,34370 -148228,79606 -199134,136063 -50433,56103 -89409,117756 -117401,184725 -47362,115984 -71221,241181 -71221,376417 0,166890 28701,306378 85630,418937 57402,112205 140788,195709 249922,250039 109606,54331 225590,81614 348543,81614 106890,0 211299,-20905 312992,-62126 101693,-41692 178583,-85629 231260,-132992l0 -349960 -547677 0 0 0zm1144488 732874l0 -1867323 247677 0 0 1648228 917953 0 0 219095 -1165630 0zm1466102 0l0 -1867323 1348229 0 0 219094 -1100434 0 0 573780 1030040 0 0 219094 -1030040 0 0 636260 1144843 0 0 219095 -1392638 0 0 0zm508465 -1982126l166890 -357166 302598 0 -279095 357166 -190393 0zm1144960 1382244l232087 -20788c10866,93898 36496,170788 76890,231260 40512,60000 102992,108544 187795,145985 84803,36968 180354,55629 286417,55629 94370,0 177402,-13937 249567,-42165 72166,-28228 125670,-66968 160866,-115984 35197,-49134 53032,-102638 53032,-159921 0,-58347 -17008,-109134 -51024,-153071 -33779,-43465 -89882,-79961 -168071,-109961 -50078,-19134 -160866,-49488 -332598,-90827 -171732,-41220 -291614,-79960 -360354,-116574 -89055,-46890 -155197,-105119 -198544,-174213 -43937,-69213 -65669,-147047 -65669,-232559 0,-94725 26929,-182953 80433,-264685 53504,-82205 131221,-144331 234331,-186969 102638,-42519 216850,-63897 342520,-63897 138070,0 260315,22086 365905,66968 105591,44292 186850,109961 243898,196890 56929,86457 87401,184724 91653,294331l-237283 18189c-12638,-117756 -55630,-206811 -129095,-266811 -73464,-60473 -182126,-90473 -325630,-90473 -149409,0 -258543,27284 -326811,82087 -68267,54803 -102519,120945 -102519,198307 0,66968 24330,122126 72401,165590 47835,43111 171733,87756 372520,133111 200905,45590 338622,85039 413386,119055 108307,49960 188622,112913 240472,189921 51732,76535 77362,164764 77362,264803 0,99449 -28346,192402 -85275,280276 -56811,87756 -138071,156023 -244606,204803 -106536,48661 -226063,72874 -359410,72874 -168779,0 -310039,-24803 -423898,-73819 -114212,-49134 -203504,-122953 -268110,-222165 -65197,-98622 -99212,-210355 -102638,-335079l0 -118z"/>
 </g>
</svg>
