<?xml version="1.0" encoding="UTF-8"?>
<!DOCTYPE svg PUBLIC "-//W3C//DTD SVG 1.1//EN" "http://www.w3.org/Graphics/SVG/1.1/DTD/svg11.dtd">
<!-- Creator: CorelDRAW X7 -->
<svg xmlns="http://www.w3.org/2000/svg" xml:space="preserve" width="450px" height="470px" version="1.1" style="shape-rendering:geometricPrecision; text-rendering:geometricPrecision; image-rendering:optimizeQuality; fill-rule:evenodd; clip-rule:evenodd"
viewBox="0 0 45000000 46999843"
 xmlns:xlink="http://www.w3.org/1999/xlink">
 <defs>
  <style type="text/css">
   <![CDATA[
    .str0 {stroke:#B84A00;stroke-width:499961}
    .fil0 {fill:none}
    .fil4 {fill:#B84A00}
    .fil1 {fill:#B84A00}
    .fil3 {fill:#F2A877}
    .fil2 {fill:white}
   ]]>
  </style>
 </defs>
 <g id="Capa_x0020_1">
  <metadata id="CorelCorpID_0Corel-Layer"/>
  <path class="fil0 str0" d="M22500000 3252992c8809252,0 15950433,7141299 15950433,15950433 0,8809252 -7141181,15950551 -15950433,15950551 -8809252,0 -15950551,-7141299 -15950551,-15950551 0,-8809134 7141299,-15950433 15950551,-15950433z"/>
  <path class="fil1" d="M7330394 39049016l30339212 0c441733,0 803150,361417 803150,803149l0 3091536c0,441732 -361417,803149 -803150,803149l-30339212 0c-441733,0 -803150,-361417 -803150,-803149l0 -3091536c0,-441732 361417,-803149 803150,-803149z"/>
  <path class="fil2" d="M17455276 42145984c117519,80670 225708,139134 325039,176457l-75000 175512c-136890,-49252 -273543,-126851 -409606,-233150 -141024,78425 -296575,117402 -466890,117402 -171969,0 -327992,-41693 -468071,-124607 -140197,-82795 -247913,-199842 -323740,-350196 -75709,-150709 -113504,-320079 -113504,-508937 0,-187559 38150,-358229 114449,-512481 75827,-153897 184370,-270945 324921,-351614 140551,-80197 297992,-120590 471732,-120590 175630,0 333898,41692 474803,125078 141024,83740 248741,200315 322796,350670 74055,149763 110787,319133 110787,507637 0,156851 -23858,297402 -71811,422481 -47362,124960 -119646,233622 -215905,326338zm-553229 -321968c144922,40866 264685,101575 358701,181771 147520,-134763 221575,-337322 221575,-607795 0,-153779 -26103,-288189 -78425,-402992 -52323,-115276 -128622,-204331 -229252,-267756 -100630,-63425 -213662,-95315 -338740,-95315 -187441,0 -343111,64252 -466300,192402 -123779,128504 -185315,320078 -185315,574960 0,246969 61181,436772 183071,569292 122362,132165 278386,198189 468544,198189 89645,0 174330,-16890 254055,-50552 -78898,-51023 -161811,-87283 -248622,-109015l60708 -183189zm2428583 -1378347l252756 0 0 1099961c0,191575 -21732,343583 -64725,456260 -43464,112086 -121535,203858 -234094,274370 -113150,70512 -260787,105945 -444331,105945 -177756,0 -323622,-30591 -436653,-92126 -113504,-61654 -194174,-150355 -242481,-266929 -48307,-116575 -72756,-275788 -72756,-477520l0 -1099961 252756 0 0 1099488c0,165355 15473,287717 46063,365788 30591,78543 82914,139252 157914,181299 74409,42638 165708,63898 273543,63898 184370,0 316063,-42166 394488,-125906 78544,-84212 117520,-245669 117520,-485079l0 -1099488zm678779 1904646l0 -1904646 1375276 0 0 223465 -1122520 0 0 585236 1050709 0 0 223465 -1050709 0 0 649015 1167756 0 0 223465 -1420512 0zm3125552 -668150l252756 63898c-52796,207047 -147638,364370 -284646,473031 -137008,108662 -304606,163111 -502795,163111 -204804,0 -371457,-41693 -500079,-125433 -128504,-83386 -226063,-204331 -293032,-362717 -66968,-158622 -100630,-328464 -100630,-510236 0,-198189 37678,-371102 113504,-518740 75827,-147638 183544,-259725 323150,-336496 139724,-76654 293504,-114803 461102,-114803 190630,0 350670,48307 480118,145393 129922,97087 220394,233268 271418,408780l-247441 58582c-43819,-138425 -108189,-239409 -191929,-302362 -83859,-63425 -189331,-94960 -316536,-94960 -145866,0 -268228,35078 -366260,105118 -97913,70039 -167126,164409 -206574,282401 -39922,118347 -59882,240237 -59882,365788 0,161811 23504,303189 70512,423779 47007,121063 120118,211063 219448,270945 99331,59764 206575,89528 322323,89528 141024,0 259843,-40748 357402,-121890 97441,-81614 163582,-202205 198071,-362717zm575078 668150l0 -1904646 252756 0 0 784725 984213 0 0 -784725 252756 0 0 1904646 -252756 0 0 -896457 -984213 0 0 896457 -252756 0zm3158032 -1904646l252756 0 0 1099961c0,191575 -21733,343583 -64725,456260 -43464,112086 -121535,203858 -234094,274370 -113150,70512 -260788,105945 -444331,105945 -177756,0 -323622,-30591 -436653,-92126 -113504,-61654 -194174,-150355 -242481,-266929 -48307,-116575 -72756,-275788 -72756,-477520l0 -1099961 252756 0 0 1099488c0,165355 15473,287717 46063,365788 30591,78543 82914,139252 157914,181299 74409,42638 165708,63898 273543,63898 184370,0 316063,-42166 394488,-125906 78543,-84212 117520,-245669 117520,-485079l0 -1099488zm464646 1904646l730629 -1904646 277087 0 775394 1904646 -286772 0 -220394 -577205 -801968 0 -206575 577205 -267401 0zm548031 -782008l649016 0 -198662 -528071c-59763,-160512 -105000,-293031 -136535,-397677 -26102,124134 -61181,246024 -105000,366614l-208819 559134z"/>
  <path class="fil3" d="M14893937 23431890c469134,-1091693 1724055,-2081929 2040472,-3343229l-1965826 68977c-1161733,1022953 -4348229,3027047 -4785709,4142362 1035354,126378 3798071,-489921 4711063,-868110z"/>
  <path class="fil3" d="M33638504 22374213c-303661,611338 -191929,389173 -616181,661771 -393898,546969 -318425,509528 -1021654,702756 -98858,27166 -668622,148701 -674645,151536 -549213,259606 -237520,-146811 -428622,456732 413267,793819 1573937,448464 2568307,379842 1152637,-1531063 2135669,-2558858 1191378,-4946811 -142914,248386 -914174,2300670 -1018583,2594174z"/>
  <path class="fil3" d="M19763858 19968898c38032,1514527 -574252,2812322 -690354,4339606l-35906 516142 693308 -76536c404527,-955512 813661,-3824764 770196,-4958622l-233031 -624803 -504213 804213z"/>
  <path class="fil3" d="M29931969 22882441l527480 -144331 -247441 -543661c-444331,-437717 -1400315,-1209449 -1683071,-1703740l-461102 -372048c1020590,-337322 157913,-10630 480354,-470787 -412205,-114921 -436772,-149173 -936260,-62008 -974527,170197 -518622,177520 -699094,321378 993661,1379646 2485511,2067165 3019134,2975197z"/>
  <g id="_758628592">
   <path class="fil4" d="M19771772 15001181c-289607,687992 109370,267165 -535512,571536 528425,801850 1535315,802086 2589449,854173 2120905,104764 1197519,-192992 2263464,1120275l1041260 -945c699331,175867 248150,-163228 641575,440788l10157 62126c55630,42165 142914,35079 168426,124370 22913,80905 123661,90236 152362,112559 31890,24921 253937,203740 307204,249803 600591,49725 1276063,103701 1788071,265748 787796,249095 820512,118229 876496,866929l-26929 486496c279213,724252 1251024,1229528 2255433,821103 315945,-128504 2062323,-895040 2302559,-1068898 -308504,-992008 18544,-1542283 -837756,-1871457 -675354,-280393 -415984,-224645 -630000,-549094 -1898385,-1247953 -2216929,-2633976 -3876023,-4259291 -920315,-901536 -1495158,-1390040 -2131417,-2094685 -922796,-1022245 -750827,-1696300 -2431300,-1628032 -995315,703819 -1108582,1897087 -1915393,2985236l-2012126 2511260z"/>
   <path class="fil4" d="M8838780 22008780l-519449 626102c-767126,1073031 675472,1460669 1774842,582638 597874,-477520 1564961,-1397481 2232756,-1743544 319961,-851929 -14291,-265630 535984,-509173 452363,-520039 544370,-227953 640040,-1057559 -1693937,-1454409 -3933307,780709 -4664173,2101536z"/>
   <path class="fil4" d="M16050118 14656181c-300000,242008 -791811,663071 -1075984,833504l-614882 804449 -358346 70748c909803,328583 1434685,270590 2388188,168661l651733 76890 258071 955394c40393,40275 94842,49252 120236,121653 25866,73701 99921,90473 135354,110079 297520,164528 -107716,22441 532323,232087 553346,-322677 936850,-451181 1489724,78071l495355 4842c351968,0 276732,95433 277323,-232559l-271300 -907205c-1267913,-493110 -2078740,-2369645 -3189448,-2583543l-838347 266929z"/>
   <path class="fil4" d="M17379921 20225315c-367677,1227165 -1460669,1925787 -1664882,3366850l1218780 1139882c682559,-617834 997913,-2045315 1382598,-3014173 552756,-1391811 1023189,-1896496 836103,-3333661 -895985,134527 -524410,-18189 -1108937,949015 -270355,447284 -416339,616772 -663662,892087z"/>
   <path class="fil4" d="M35530512 25119213l625984 326102 739606 -277913c-3897,-1159134 -297401,-2762363 -723071,-3724371 -303897,346182 -316299,-597992 -128622,877796 132402,1040551 121182,1669488 -747755,2409094 46299,783544 -39449,255827 233858,389292z"/>
  </g>
  <path class="fil3" d="M27555354 22317520c393898,552047 824882,1028858 1321063,1726535 428504,602480 607205,1199646 1517599,1282323 -75709,-510472 -2131654,-3042165 -2681575,-3718465 -459331,-564567 -435827,-788976 -1168701,-886535 516851,367441 385158,800079 1011614,1596142z"/>
  <path class="fil3" d="M21285118 18414685c701339,777756 217087,906614 1662047,934134 -185905,-693898 224174,-457205 -489212,-749882l-597874 -564685 403110 -257717 1211575 -61889 -257953 -262559 -2709094 -78071 777401 1040669z"/>
  <path class="fil3" d="M26410157 18535866c-53267,-46063 -275314,-224882 -307204,-249803 -28701,-22323 -129449,-31654 -152362,-112559 -25512,-89291 -112796,-82205 -168426,-124370 -116338,828661 615945,429331 -1926732,609331 197244,966259 185551,414921 1114134,1612559l1041142 -193229 -882520 -804803c936732,-387165 721890,103228 1281968,-737126z"/>
  <path class="fil3" d="M26179724 23448307l-542362 -1690984 808583 -658937 -957874 255236c-365906,155906 -173622,174331 -204213,733465l310985 1251023c-889843,804213 -205394,-177756 -764882,930709l1020945 -592913 605905 1368425c133937,-513898 16535,-687048 -277087,-1596024z"/>
  <path class="fil3" d="M13446142 18844724c924330,147166 773858,181536 1163149,855945l627284 18071 -220512 -1248661c-752362,-161457 -1217126,-87520 -1539685,-715394l-149646 -195236c-169134,304488 -312047,488268 -448701,867874l568111 417401z"/>
  <path class="fil3" d="M23525315 24841181c451772,-498071 569764,-3053268 559370,-3464527 -26457,-1056378 -280039,-918544 -511181,-1111536l-48189 4576063z"/>
  <path class="fil3" d="M16015276 19283031l734527 -850866 -9567 -907441c-481063,82205 -1074685,281930 -1240866,572126 -71693,125315 -248622,338268 -95433,732520 339921,874370 -111496,301536 611339,453661z"/>
  <path class="fil3" d="M13944803 17768858l-468425 -14173c322559,627874 787323,553937 1539685,715394l97441 -546496c773268,-205394 904488,-266575 1140590,-929882l-1726181 124724 1080355 116811c-231496,224528 -418347,365315 -789095,673347l-874370 -139725z"/>
  <path class="fil3" d="M26035276 22321181c504212,53268 352913,-361772 411968,247913l269646 209056c359645,-544016 200433,-187796 380315,-809882 -486496,-508347 -368740,-473386 -1250433,-350197l188504 703110z"/>
  <path class="fil3" d="M27802913 23505118l-130630 -349016 -529960 -194763c-401811,635196 -347126,-63071 -212244,1023070l897874 1418 -25040 -480709z"/>
  <path class="fil3" d="M32768031 18035787l-630000 -549094c214016,324449 -45354,268701 630000,549094z"/>
 </g>
</svg>
