<?xml version="1.0" encoding="UTF-8"?>
<!DOCTYPE svg PUBLIC "-//W3C//DTD SVG 1.1//EN" "http://www.w3.org/Graphics/SVG/1.1/DTD/svg11.dtd">
<!-- Creator: CorelDRAW X7 -->
<svg xmlns="http://www.w3.org/2000/svg" xml:space="preserve" width="450px" height="470px" version="1.1" style="shape-rendering:geometricPrecision; text-rendering:geometricPrecision; image-rendering:optimizeQuality; fill-rule:evenodd; clip-rule:evenodd"
viewBox="0 0 45000000 46999843"
 xmlns:xlink="http://www.w3.org/1999/xlink">
 <defs>
  <style type="text/css">
   <![CDATA[
    .str0 {stroke:#EDB600;stroke-width:499961}
    .fil2 {fill:none}
    .fil0 {fill:#EDB600}
    .fil3 {fill:#EDB600}
    .fil1 {fill:white}
   ]]>
  </style>
 </defs>
 <g id="Capa_x0020_1">
  <metadata id="CorelCorpID_0Corel-Layer"/>
  <path class="fil0" d="M7330394 39049016l30339212 0c441733,0 803150,361417 803150,803149l0 3091536c0,441732 -361417,803149 -803150,803149l-30339212 0c-441733,0 -803150,-361417 -803150,-803149l0 -3091536c0,-441732 361417,-803149 803150,-803149z"/>
  <path class="fil1" d="M16986496 42350315l730630 -1904646 277087 0 775393 1904646 -286771 0 -220394 -577205 -801969 0 -206574 577205 -267402 0zm548032 -782008l649015 0 -198661 -528071c-59764,-160512 -105000,-293031 -136536,-397677 -26102,124134 -61181,246024 -105000,366614l-208818 559134zm1424409 782008l0 -1904646 252756 0 0 1681181 936260 0 0 223465 -1189016 0zm1495394 0l0 -1904646 1375275 0 0 223465 -1122519 0 0 585236 1050708 0 0 223465 -1050708 0 0 649015 1167756 0 0 223465 -1420512 0zm1763622 0l0 -1904646 377716 0 450473 1348229c41693,125433 71811,219448 90945,281929 21614,-69095 55748,-171024 101929,-305433l458386 -1324725 337441 0 0 1904646 -242126 0 0 -1593425 -555945 1593425 -227008 0 -549685 -1622598 0 1622598 -242126 0zm2012362 0l730630 -1904646 277086 0 775394 1904646 -286771 0 -220394 -577205 -801969 0 -206574 577205 -267402 0zm548031 -782008l649016 0 -198661 -528071c-59764,-160512 -105000,-293031 -136536,-397677 -26102,124134 -61181,246024 -105000,366614l-208819 559134zm121063 -1239685l170197 -364370 308504 0 -284527 364370 -194174 0zm1311378 2021693l0 -1904646 258898 0 999331 1495040 0 -1495040 242008 0 0 1904646 -258898 0 -999331 -1494921 0 1494921 -242008 0z"/>
  <path class="fil2 str0" d="M22500000 3252992c8809252,0 15950433,7141299 15950433,15950433 0,8809252 -7141181,15950551 -15950433,15950551 -8809252,0 -15950551,-7141299 -15950551,-15950551 0,-8809134 7141299,-15950433 15950551,-15950433z"/>
  <path class="fil3" d="M32609764 26867598l0 -8709567 363307 0 0 -2442165 -490276 0 0 -863149 159213 0 0 -340867 -4978819 0 0 -704291 -2089961 0c60355,-83031 0,-639567 120945,-760512 126969,-125433 66378,-246378 208465,-246378 143740,0 210000,-22677 210000,-22677 0,0 120945,187205 60236,352087 -65905,164882 -187205,329764 -187205,329764 0,0 -22323,336496 208347,83031 0,0 225590,-473150 204449,-681496 -22796,-204449 -83032,-600000 -83032,-660709 0,-66260 -208464,-352204 -208464,-352204l104291 -368859c0,0 164409,60355 208346,-43937 45118,-104173 -98622,-758858 -98622,-841889 0,-76300 -16771,-202796 -202795,-225591 -192756,-22323 -380433,-11220 -446339,236693 -60708,253583 -104173,726614 -225590,995669 -126496,270355 -516969,456378 -621142,681969 -105472,226299 -83031,665905 -83031,870236 0,202913 60590,390118 22677,537874 -11575,28346 -17126,71811 -22677,116929l-412441 0 0 -594449c0,-247913 22323,-934960 -121418,-1326614 -147637,-395669 -126496,-494291 -147637,-785787 -22796,-291378 0,-683032 -181654,-721418 -187323,-43464 -314173,38386 -314173,38386 0,0 43464,-600000 -143740,-659173 -185670,-66260 -433583,-22677 -477520,59173 -39095,83032 -166063,-59173 -247913,-119764 -39095,-34015 -98622,-50787 -170079,-56338l0 -780118c246378,-39567 433582,-253465 433582,-507048 0,-263503 -187204,-473503 -433582,-516968l0 -247913c15118,-4371 43464,-10040 71457,-21142 0,0 329763,-164882 433937,-395669 98622,-231142 138188,-495827 138188,-495827 0,0 -346535,143740 -490275,308622 -32362,32244 -66260,71811 -87402,104173 -16771,-126968 -77480,-220039 -149291,-220039 -71929,0 -132165,93071 -147756,220039 -27992,-32362 -55157,-71929 -83031,-104173 -147756,-164882 -500315,-308622 -500315,-308622 0,0 43937,264685 148228,495827 98504,225118 435118,395669 435118,395669 21142,11102 43465,16771 66260,21142l0 253464c-247913,37914 -435118,247914 -435118,511417 0,259134 187205,467481 435118,512599l0 791338c-33898,5552 -56339,22796 -77480,39567 -104174,76181 -187205,98504 -270237,98504 -81850,0 -246732,43583 -231141,170552 22322,120944 105354,473031 105354,594448 0,126496 125787,516614 0,687048 -120945,164881 -171614,264685 -171614,264685 0,0 -115394,-230788 -115394,-616772 0,-126614 -10039,-478701 -246378,-499843 -281811,-22795 -270709,274607 -247913,456260 22323,187323 37913,808465 -126969,952205 -164882,147756 -164882,373346 -187204,643583 -21142,269055 66259,412795 126496,516614 60708,104527 60708,225590 83149,329764 21142,104173 104528,204330 104528,204330 0,0 37913,147756 104173,43583 54685,-98622 -164882,-594449 -26693,-495827 92599,60709 81378,467481 64606,760512l-759330 0c-3898,-45118 -9567,-88583 -21142,-120945 -39095,-143740 21142,-330945 21142,-533858 0,-209882 22795,-643937 -81378,-874606 -104174,-226772 -495827,-412914 -626811,-677599 -120945,-269055 -160512,-747756 -226772,-995669 -60709,-247913 -202795,-225591 -390000,-208347 -181653,21142 -204449,147638 -204449,225119 0,87401 -334960,517086 -147756,808464 60355,93071 208465,49488 208465,49488l105354 363307c0,0 -209527,291496 -209527,352087 0,60354 -60709,461929 -81851,666378 -22441,202795 202796,681496 202796,681496 231141,247913 210000,-83031 210000,-83031 0,0 -121418,-164882 -187323,-329764 -60591,-164882 65905,-352087 65905,-352087 0,0 60709,22677 208819,22677 137717,0 77480,120945 203976,246378 121418,120945 64725,677481 121418,760512l-2355118 0 0 704291 -5073071 0 0 340867 314291 0 0 868700 -616890 0 0 2442520 351733 0 0 8709331 -863150 0 0 594449 22165394 0 0 -594449 -972874 -5670zm-17060433 0l-1309488 0 0 -8527913 1309488 0 0 8527913zm3328346 0l-1309842 0 0 -8527913 1309842 0 0 8527913zm4834725 0l-2811024 0 0 -8527913 2811024 0 0 8527913zm3526889 0l-1507086 0 0 -8527913 1507086 0 0 8527913zm3411024 0l-1385787 0 0 -8527913 1385787 0 0 8527913z"/>
 </g>
</svg>
