<?xml version="1.0" encoding="UTF-8"?>
<!DOCTYPE svg PUBLIC "-//W3C//DTD SVG 1.1//EN" "http://www.w3.org/Graphics/SVG/1.1/DTD/svg11.dtd">
<!-- Creator: CorelDRAW X7 -->
<svg xmlns="http://www.w3.org/2000/svg" xml:space="preserve" width="450px" height="470px" version="1.1" style="shape-rendering:geometricPrecision; text-rendering:geometricPrecision; image-rendering:optimizeQuality; fill-rule:evenodd; clip-rule:evenodd"
viewBox="0 0 45000000 46999843"
 xmlns:xlink="http://www.w3.org/1999/xlink">
 <defs>
  <style type="text/css">
   <![CDATA[
    .str0 {stroke:#329909;stroke-width:499961}
    .fil0 {fill:none}
    .fil1 {fill:#329909}
    .fil2 {fill:white}
    .fil3 {fill:#329909;fill-rule:nonzero}
   ]]>
  </style>
 </defs>
 <g id="Capa_x0020_1">
  <metadata id="CorelCorpID_0Corel-Layer"/>
  <path class="fil0 str0" d="M22500000 3252992c8809252,0 15950433,7141299 15950433,15950433 0,8809252 -7141181,15950551 -15950433,15950551 -8809252,0 -15950551,-7141299 -15950551,-15950551 0,-8809134 7141299,-15950433 15950551,-15950433z"/>
  <path class="fil1" d="M7330394 39049016l30339212 0c441733,0 803150,361417 803150,803149l0 3091536c0,441732 -361417,803149 -803150,803149l-30339212 0c-441733,0 -803150,-361417 -803150,-803149l0 -3091536c0,-441732 361417,-803149 803150,-803149z"/>
  <path class="fil2" d="M16745669 42350315l0 -1904646 252638 0 0 1904646 -252638 0zm1180512 0l0 -1681181 -627756 0 0 -223465 1508268 0 0 223465 -627756 0 0 1681181 -252756 0zm734646 0l730630 -1904646 277086 0 775394 1904646 -286772 0 -220393 -577205 -801969 0 -206575 577205 -267401 0zm548031 -782008l649016 0 -198661 -528071c-59764,-160512 -105000,-293031 -136536,-397677 -26102,124134 -61181,246024 -105000,366614l-208819 559134zm1424410 782008l0 -1904646 252756 0 0 1681181 936259 0 0 223465 -1189015 0zm1532716 0l0 -1904646 252638 0 0 1904646 -252638 0zm487559 0l730630 -1904646 277087 0 775394 1904646 -286772 0 -220394 -577205 -801968 0 -206575 577205 -267402 0zm548032 -782008l649016 0 -198662 -528071c-59764,-160512 -105000,-293031 -136535,-397677 -26103,124134 -61181,246024 -105000,366614l-208819 559134zm1432441 782008l0 -1904646 258897 0 999331 1495040 0 -1495040 242008 0 0 1904646 -258898 0 -999330 -1494921 0 1494921 -242008 0zm1846535 -927047c0,-315709 85158,-563032 254882,-741733 169843,-178700 388819,-267755 657520,-267755 175984,0 334252,42165 475748,125905 140905,83740 248740,200787 322677,351142 74055,149882 111378,320079 111378,510236 0,192874 -39095,365787 -117047,517913 -78071,152481 -188504,267756 -331181,345827 -143268,78425 -297520,117402 -462874,117402 -179528,0 -339567,-43465 -481063,-129922 -141024,-86456 -248268,-204330 -321024,-354212 -72638,-149410 -109016,-307677 -109016,-474803zm260669 4488c0,229134 61654,409606 184843,541299 123307,131693 278031,197717 464291,197717 189685,0 345355,-66496 468071,-199489 122362,-132992 183544,-321850 183544,-566574 0,-154725 -26103,-289961 -78426,-405237 -52323,-115275 -128976,-204803 -229606,-268228 -101102,-63425 -214134,-95315 -339685,-95315 -178228,0 -331535,61181 -460158,183543 -128622,122363 -192874,326339 -192874,612284z"/>
  <path class="fil3" d="M21531378 8956772c19370,-136536 151181,-234449 287953,-210355 136417,19961 234094,151654 209645,288307l-234094 1551615 1029567 156141 234331 -1551614c19488,-136772 151299,-234094 288070,-209646 136536,19252 233741,150945 209292,287599l-234095 1551968 1029803 155906 234449 -1551732c19488,-136418 151063,-234095 287717,-209646 136653,19606 233976,151299 209764,287953l-233977 1551496 1029213 156023 234330 -1551378c19607,-136771 151300,-234448 287953,-210000 136536,19607 234449,151063 209764,287953l-234094 1551851 488031 73228 409724 -2742638 -6055866 -921968 -409724 2742401 488149 73229 234095 -1556693zm3898937 19252l0 0c19370,-136418 151181,-234095 287953,-209646 136299,19370 234212,150945 209645,287716l-44055 302717 -497598 -72992 44055 -307795zm-1527284 -224528l0 0c19489,-136417 151063,-233858 287835,-209409 136536,19370 233977,151063 209764,287716l-43937 302362 -497717 -78071 44055 -302598zm-1527283 -229370l0 0c19252,-136417 151181,-233858 287835,-209764 136653,19370 233976,151063 209409,288071l-43583 302362 -497952 -72992 44291 -307677zm3747283 11155039l0 0c19371,-136417 -73110,-268110 -209763,-287480 -136654,-19724 -268347,72638 -288071,209409l-228898 1522796 -322559 -49134 229488 -1522441c19607,-136417 -73110,-268465 -209763,-287835 -136654,-19370 -268111,72992 -288071,210000l-228898 1522441 -322559 -49134 229606 -1522441c19370,-136653 -73228,-268346 -209763,-287834 -136772,-19252 -268465,73582 -287953,210000l-229252 1522323 -322205 -48898 229488 -1522441c19252,-136772 -73228,-268465 -210000,-287835 -136535,-19370 -268346,72993 -287834,209764l-229252 1522441 -322087 -48543 229252 -1522795c19370,-136418 -73228,-268347 -209764,-287363 -136771,-19960 -268346,72874 -287953,209410l-229133 1522677 -322205 -48780 229370 -1522441c19488,-136535 -73346,-268700 -209882,-288070 -136653,-19489 -268346,73582 -287953,210000l-229134 1522441 -322204 -49134 229252 -1522205c19488,-136654 -73111,-268583 -209764,-287835 -136654,-19606 -268228,73347 -287835,209764l-229370 1522795 -322205 -49133 229371 -1522796c19370,-136417 -73111,-268110 -209410,-287480 -137008,-19606 -268701,72992 -288189,209764l-229252 1522441 -322086 -48780 229015 -1522795c19607,-136536 -72637,-268110 -209763,-287480 -136536,-19961 -268111,72992 -287835,209409l-229134 1522795 -546732 -82795 346417 -2298543 8144410 1219842 -346772 2298544 -546614 -82796 234448 -1483819zm980906 -6538464l0 0c19370,-136418 -73228,-268701 -210000,-288071 -136535,-19370 -268228,72992 -287835,209764l-229133 1546771 -322087 -48543 229252 -1547126c19370,-136417 -73347,-268110 -209882,-287716 -136535,-19489 -268110,72992 -287953,210000l-229134 1546771 -322322 -49134 229488 -1546889c19370,-136063 -73111,-267993 -209528,-288071 -136653,-19252 -268464,73346 -288307,210000l-229134 1547244 -322205 -48780 229134 -1547008c19725,-136653 -72637,-268346 -209409,-287716 -136654,-19961 -268465,72992 -288189,210000l-229016 1546417 -322323 -48897 229252 -1546890c19607,-136536 -72874,-268465 -209409,-287835 -136890,-19016 -268347,73347 -288071,210000l-229370 1546890 -322087 -48898 229016 -1546771c19724,-137008 -72756,-268347 -209409,-287717 -136418,-19724 -268347,72874 -287953,209646l-229370 1546889 -322205 -48897 229370 -1547126c19606,-136181 -72992,-268110 -209646,-287717 -136535,-19488 -268346,72992 -287716,209646l-229488 1547480 -322205 -49370 229252 -1546417c19842,-136654 -72992,-268583 -209646,-288071 -136535,-19842 -268346,73110 -288071,209764l-229133 1546890 -322205 -48780 229252 -1547008c19606,-136417 -72992,-268582 -209646,-287480 -136535,-19843 -268346,72756 -287716,209409l-229607 1547008 -546496 -83149 346654 -2298426 8144055 1219843 -346417 2298779 -546615 -83149 234213 -1507559zm-488031 3259370l0 0c19842,-136654 -73229,-268701 -209764,-287717 -136654,-19724 -268465,73229 -287953,209764l-229606 1541457 -321851 -47953 229488 -1542756c19489,-136063 -73228,-267992 -210000,-287480 -136535,-19606 -268346,73110 -287834,209764l-229370 1542047 -321851 -48780 229016 -1542165c19843,-136654 -73110,-268346 -209646,-287717 -136771,-19606 -268346,73229 -287834,209646l-229607 1542165 -321850 -48779 229606 -1527520c19370,-136417 -73464,-268701 -210236,-287834 -136417,-19370 -268228,73346 -287716,210000l-229607 1541574 -321850 -48543 229488 -1542165c19488,-136654 -73228,-268110 -210000,-287835 -136890,-19606 -268464,73347 -287716,209764l-229607 1541811 -321850 -48189 229606 -1542402c19370,-136535 -73582,-267874 -210236,-287480 -136654,-19961 -268346,72874 -287953,209409l-229134 1541812 -322086 -48544 229488 -1542165c19488,-136417 -73347,-268347 -210354,-287717 -136300,-19370 -268229,73583 -287717,210000l-229016 1541811 -322323 -48543 229607 -1542047c19370,-136772 -73583,-268701 -210000,-287835 -136654,-19724 -268465,72992 -287835,209764l-229488 1541811 -322087 -48661 229607 -1542048c19488,-136417 -73347,-268346 -210000,-288071 -136654,-19606 -268465,73347 -288071,209764l-229134 1542402 -546614 -83386 346417 -2297953 8144291 1219606 -346417 2298189 -546496 -82559 234095 -1517716zm-9441969 11145472l0 0 8143937 1219252 -380669 2538189 -614528 0 117047 -780945c58465,-405472 -219685,-780708 -624803,-844252 -404882,-58700 -780708,219567 -844134,624331l-151063 1000866 -366259 0 156141 -1054134c58701,-405354 -219330,-781063 -624449,-844488 -405000,-58346 -780826,219567 -844015,624685l-190630 1273937 -366142 0 200433 -1332401c58465,-405355 -219685,-781300 -624567,-844134 -405118,-58465 -780590,219567 -844488,624331l-233740 1552204 -366142 0 239173 -1605827c58347,-404763 -219803,-780472 -624803,-843897 -405000,-58701 -780590,219921 -844252,624449l-258543 1830000 -614646 0 561142 -3762166zm8466142 -4626378l0 0c19252,-136181 -73347,-268110 -209764,-287716 -136535,-19370 -268346,72992 -287953,209645l-229488 1542166 -321850 -48780 229252 -1541929c19370,-136771 -73111,-268701 -209882,-288071 -136418,-19606 -268347,73347 -287717,210000l-229606 1542166 -321851 -49016 229252 -1541575c19725,-137126 -73228,-268701 -209645,-288425 -136890,-19370 -268583,72992 -287953,210000l-229606 1541929 -321733 -48898 229016 -1541811c19961,-136417 -73110,-268700 -209764,-288070 -136417,-19489 -268464,72992 -287952,209409l-229370 1542402 -321851 -48898 229370 -1541811c19607,-136417 -73228,-268347 -209882,-288071 -136771,-19370 -268582,73110 -287834,209528l-229725 1542283 -321850 -49016 229370 -1541575c19606,-136535 -73110,-268464 -209882,-287834 -136535,-19843 -268346,72992 -287953,209764l-229252 1541811 -321968 -49134 229252 -1541575c19724,-136654 -73229,-268346 -209764,-287717 -136653,-19370 -268465,73229 -287835,210000l-229724 1541575 -321850 -48897 229252 -1542048c19842,-136535 -73111,-268464 -209646,-287480 -136654,-19370 -268465,72992 -287835,210000l-229606 1541811 -321850 -48661 229606 -1507796c19252,-137007 -73347,-268700 -210118,-288425 -136654,-19252 -268347,73701 -287717,210118l-229724 1541811 -546260 -82559 346535 -2298425 8143937 1219606 -346181 2298426 -546496 -82559 234095 -1537678zm-492756 3279331l0 0c19370,-136299 -73583,-268583 -210118,-288071 -136536,-19252 -268229,73347 -287717,209764l-229370 1527638 -321968 -49134 229252 -1527047c19606,-136772 -73465,-268347 -209882,-288071 -136536,-19016 -268347,73346 -288071,209764l-229134 1527519 -322205 -48897 229488 -1527520c19607,-136417 -73228,-268110 -209763,-287717 -136890,-19015 -268465,72993 -288071,209764l-229370 1527402 -322087 -48780 229606 -1527283c19489,-136418 -73228,-268110 -210118,-287953 -136299,-19370 -268346,73228 -287952,210000l-229252 1527756 -321969 -49134 229370 -1527520c19370,-136417 -73110,-268110 -209764,-288070 -136653,-19016 -268346,73346 -288071,210000l-229015 1527519 -322441 -49134 229488 -1526929c19488,-136653 -73110,-268701 -209764,-288071 -136535,-19606 -268110,73347 -288071,209764l-229015 1527520 -322323 -49134 229370 -1527047c19488,-136654 -73229,-268347 -209764,-287953 -136653,-19606 -268465,72992 -287953,209646l-229252 1527283 -322441 -48898 229843 -1526929c19252,-136417 -73228,-268700 -210000,-288071 -136536,-19606 -268347,73347 -287953,209764l-229016 1527520 -322204 -49134 229252 -1526929c19488,-136772 -73111,-268701 -209882,-288071 -136654,-19370 -268347,72992 -287953,210000l-229016 1526929 -546614 -82559 346181 -2298425 8144528 1219606 -346890 2298662 -546378 -83032 234449 -1488307zm277913 1849134l0 0 512481 78543 -73229 483071 -512480 -78307 -8144055 -1220079 -512599 -78071 73701 -482834 512244 78071 8143937 1219606zm492874 -3264567l0 0 512126 78661 -72756 482599 -512362 -78071 -8144527 -1219252 -512126 -78661 73228 -482835 512126 77716 8144291 1219843zm488032 -3259134l0 0 512480 78071 -73465 482835 -512244 -78071 -8144173 -1219843 -512244 -77952 73110 -483189 512599 78070 8143937 1220079zm487795 -3259724l0 0 512480 77716 -73110 483544 -512480 -78426 -8143937 -1219724 -512481 -78071 73111 -483189 512244 78307 8144173 1219843zm488150 -3259725l0 0 512362 78307 -73347 482835 -512362 -77953 -8144173 -1219842 -512244 -78307 73346 -482599 512362 77717 8144056 1219842zm-3128150 -3801260l0 0 4133386 619961 -73229 482480 -512480 -77716 -8143937 -1220079 -512716 -78307 73346 -482362 1556811 234212 3478819 521811zm-3249331 -3781889l0 0 -88110 -512126 6875433 1029803 -234094 462992 -6553229 -980669z"/>
  <polygon class="fil1" points="16000039,30999803 25500000,30999803 25500000,31999843 16000039,31999843 "/>
 </g>
</svg>
