<?xml version="1.0" encoding="UTF-8"?>
<!DOCTYPE svg PUBLIC "-//W3C//DTD SVG 1.1//EN" "http://www.w3.org/Graphics/SVG/1.1/DTD/svg11.dtd">
<!-- Creator: CorelDRAW X7 -->
<svg xmlns="http://www.w3.org/2000/svg" xml:space="preserve" width="450px" height="470px" version="1.1" style="shape-rendering:geometricPrecision; text-rendering:geometricPrecision; image-rendering:optimizeQuality; fill-rule:evenodd; clip-rule:evenodd"
viewBox="0 0 45000000 46999843"
 xmlns:xlink="http://www.w3.org/1999/xlink">
 <defs>
  <style type="text/css">
   <![CDATA[
    .str0 {stroke:#00923F;stroke-width:499961}
    .fil0 {fill:none}
    .fil1 {fill:#00923F}
    .fil2 {fill:white}
   ]]>
  </style>
 </defs>
 <g id="Capa_x0020_1">
  <metadata id="CorelCorpID_0Corel-Layer"/>
  <path class="fil0 str0" d="M22500000 3252992c8809252,0 15950433,7141299 15950433,15950433 0,8809252 -7141181,15950551 -15950433,15950551 -8809252,0 -15950551,-7141299 -15950551,-15950551 0,-8809134 7141299,-15950433 15950551,-15950433z"/>
  <path class="fil1" d="M7330394 39049016l30339212 0c441733,0 803150,361417 803150,803149l0 3091536c0,441732 -361417,803149 -803150,803149l-30339212 0c-441733,0 -803150,-361417 -803150,-803149l0 -3091536c0,-441732 361417,-803149 803150,-803149z"/>
  <path class="fil2" d="M14271142 42350315l0 -1904646 719173 0c126260,0 222992,6260 289961,18189 93543,15591 171968,45236 235393,88701 63425,43819 114331,105118 152953,183543 38504,78426 57638,164882 57638,259370 0,161339 -51496,298347 -154725,410079 -102874,112205 -289488,168071 -559133,168071l-488504 0 0 776693 -252756 0zm252756 -1000158l492047 0c163228,0 278504,-30236 347126,-90944 68386,-60709 102520,-145867 102520,-256182 0,-79370 -19961,-147637 -60355,-204448 -40393,-56693 -93543,-94370 -159094,-112559 -42638,-11103 -121063,-16890 -235040,-16890l-487204 0 0 681023zm1444370 73111c0,-315709 85157,-563032 254882,-741733 169842,-178700 388819,-267755 657519,-267755 175985,0 334252,42165 475748,125905 140906,83740 248740,200787 322677,351142 74056,149882 111378,320079 111378,510236 0,192874 -39094,365787 -117047,517913 -78071,152481 -188504,267756 -331181,345827 -143268,78425 -297520,117402 -462874,117402 -179527,0 -339567,-43465 -481063,-129922 -141024,-86456 -248268,-204330 -321024,-354212 -72637,-149410 -109015,-307677 -109015,-474803zm260669 4488c0,229134 61654,409606 184843,541299 123307,131693 278031,197717 464291,197717 189685,0 345354,-66496 468071,-199489 122362,-132992 183543,-321850 183543,-566574 0,-154725 -26102,-289961 -78425,-405237 -52323,-115275 -128977,-204803 -229606,-268228 -101103,-63425 -214134,-95315 -339685,-95315 -178229,0 -331536,61181 -460158,183543 -128622,122363 -192874,326339 -192874,612284zm1890827 922559l0 -1904646 844134 0c169842,0 298819,17362 387047,51496 88228,34134 158740,94370 211535,180827 52677,86457 78898,182244 78898,286890 0,135236 -43937,249094 -131221,341811 -87401,92598 -222165,151181 -404763,176457 66850,31889 117401,63779 152008,94842 73582,67441 143267,152126 208346,253583l329409 518740 -314763 0 -251811 -396378c-73111,-114803 -133819,-202087 -181300,-262913 -47834,-60709 -90472,-102874 -128149,-127205 -37205,-23976 -75827,-40748 -114803,-50551 -28347,-5788 -74882,-8859 -140079,-8859l-291732 0 0 845906 -252756 0zm252756 -1064055l540826 0c115276,0 204804,-11929 269646,-35906 64725,-23504 113858,-61653 147165,-114330 33662,-52323 50552,-109134 50552,-170670 0,-90000 -32363,-164527 -97559,-222637 -65197,-58111 -168071,-86930 -308622,-86930l-602008 0 0 630473zm2099173 1064055l0 -1681181 -627756 0 0 -223465 1508268 0 0 223465 -627756 0 0 1681181 -252756 0zm2388307 -1904646l252756 0 0 1099961c0,191575 -21732,343583 -64725,456260 -43464,112086 -121535,203858 -234094,274370 -113150,70512 -260787,105945 -444331,105945 -177756,0 -323622,-30591 -436653,-92126 -113504,-61654 -194173,-150355 -242481,-266929 -48307,-116575 -72755,-275788 -72755,-477520l0 -1099961 252755 0 0 1099488c0,165355 15473,287717 46063,365788 30591,78543 82914,139252 157914,181299 74409,42638 165708,63898 273543,63898 184370,0 316063,-42166 394488,-125906 78544,-84212 117520,-245669 117520,-485079l0 -1099488zm1564606 1157126l0 -223464 805985 0 0 705826c-123662,98504 -251339,172914 -383032,222638 -131693,49607 -266929,74410 -405236,74410 -187087,0 -356811,-39922 -509882,-120118 -152480,-79843 -268110,-195945 -345709,-347126 -78071,-151654 -117047,-321024 -117047,-507638 0,-185315 38504,-358229 116102,-519213 77599,-160393 188859,-279685 334252,-357283 145512,-78071 312992,-117047 502796,-117047 137480,0 261968,22204 373346,66968 111260,44764 198543,106772 261496,186142 63425,79842 111260,184016 144095,312165l-227363 62008c-28818,-96614 -64370,-172913 -106417,-228661 -42638,-55512 -102874,-99804 -181772,-133111 -78543,-33189 -165826,-50078 -262086,-50078 -114803,0 -214134,17716 -298347,52795 -83740,34961 -151181,81142 -203031,138779 -51496,57166 -91299,120119 -119764,188386 -48307,118347 -72638,246024 -72638,383977 0,170196 29292,312519 87284,427322 58582,114449 143622,199607 255000,255000 111732,55394 230079,83268 355512,83268 109015,0 215433,-21260 319252,-63307 103700,-42638 182126,-87402 235866,-135709l0 -356929 -558662 0zm2425512 -1157126l252756 0 0 1099961c0,191575 -21732,343583 -64724,456260 -43465,112086 -121536,203858 -234095,274370 -113149,70512 -260787,105945 -444331,105945 -177755,0 -323622,-30591 -436653,-92126 -113504,-61654 -194173,-150355 -242480,-266929 -48308,-116575 -72756,-275788 -72756,-477520l0 -1099961 252756 0 0 1099488c0,165355 15472,287717 46063,365788 30590,78543 82913,139252 157913,181299 74409,42638 165709,63898 273543,63898 184370,0 316063,-42166 394488,-125906 78544,-84212 117520,-245669 117520,-485079l0 -1099488zm678780 1904646l0 -1904646 1375275 0 0 223465 -1122519 0 0 585236 1050708 0 0 223465 -1050708 0 0 649015 1167755 0 0 223465 -1420511 0zm518740 -2021693l170197 -364370 308622 0 -284646 364370 -194173 0zm1167756 1409882l236693 -21260c11102,95787 37322,174213 78543,235866 41220,61181 105000,110788 191457,148937 86456,37677 184015,56693 292204,56693 96260,0 180945,-14173 254528,-42992 73583,-28819 128150,-68268 164055,-118346 35906,-50079 54095,-104646 54095,-163111 0,-59409 -17363,-111260 -51969,-156141 -34488,-44292 -91772,-81496 -171496,-112087 -51024,-19488 -164055,-50551 -339213,-92717 -175157,-42047 -297519,-81496 -367559,-118818 -90826,-47835 -158267,-107245 -202559,-177756 -44764,-70512 -66968,-149882 -66968,-237166 0,-96614 27519,-186614 82086,-270000 54449,-83858 133819,-147165 238937,-190630 104646,-43464 221221,-65196 349370,-65196 140906,0 265512,22559 373229,68267 107716,45236 190630,112205 248740,200788 58110,88228 89173,188504 93543,300236l-242008 18543c-12874,-120118 -56811,-210945 -131693,-272126 -75000,-61653 -185787,-92244 -332126,-92244 -152480,0 -263740,27874 -333425,83740 -69567,55866 -104527,123307 -104527,202205 0,68268 24803,124606 73937,168898 48779,43937 175157,89527 379960,135708 204922,46536 345355,86811 421654,121418 110433,51023 192401,115275 245197,193818 52795,77953 78897,167953 78897,270000 0,101457 -28819,196300 -86929,285945 -57992,89528 -140905,159095 -249567,208819 -108661,49607 -230551,74410 -366614,74410 -172086,0 -316181,-25276 -432283,-75355 -116575,-50078 -207520,-125433 -273544,-226535 -66496,-100630 -101102,-214606 -104645,-341811z"/>
  <path class="fil1" d="M24545197 27308386l-3898 -4345866 231732 217913 3662 4127953 -231496 0zm-3939921 -7108465l318307 223465 6260 6889134 -318308 0 -6259 -7112599zm972755 682796l5788 6428503 -308858 1300 -5906 -6646418 -311338 -219330 620314 435945zm654567 459212l5197 5969291 -308858 0 -5433 -6185905 309094 216614zm654449 459331l4725 5508543 -308741 1417 -5196 -5726574 309212 216614zm654449 459331l0 0 345236 242598 590079 413976 -280984 -197362 4134 4588583 -308859 0 -4370 -4805197 -345236 -242598 4488 5049212 -308976 0 -4725 -5265827 309213 216615zm8777953 -10946575c9803,-114922 -145512,-124016 -145512,-124016l-713031 -31890c282637,-69449 302125,-284409 190393,-255000 -111850,29055 -469842,-46890 -827953,48071 -358228,95079 -538700,281221 -538700,281221l-348307 472c-57284,18071 -142323,31299 -247205,40984 -700394,63307 -2291339,-44882 -2522835,-63543 -266102,-21614 -1794567,-544488 -1991693,-598819 -197244,-54567 -1173071,-42520 -1173071,-42520 -374645,-10630 -405472,-1223504 -405472,-1223504 42165,-1373385 -583465,-1725118 -923150,-1814881 -56102,-14882 -104409,-22441 -140551,-26457l-354 -4252c0,0 -12992,-236 -35551,1181 -22677,-1299 -35551,-1181 -35551,-1181l-355 4370c-255827,28583 -1112244,243661 -1060630,1843701 118,0 -28346,1212992 -402992,1224330 0,0 -975945,-9921 -1173071,45119 -118464,32834 -717401,235984 -1234252,397677 -342992,107480 -650078,196535 -756496,205393 -266102,22205 -2329606,166536 -2769921,28583l-348307 473c0,0 -180827,-185552 -539055,-280040 -110197,-28937 -220512,-41693 -323504,-46417 -231732,-10512 -427087,20079 -504685,0 -100276,-25984 -94488,144567 112323,229488 23385,9449 49606,18307 78661,25158l-132520 6259 -580511 27402c0,0 -155434,9331 -145512,124134 0,0 -189567,118 -179646,98504 9921,98149 108543,106417 179882,109015 0,0 118,125552 71575,133701 20551,2481 40630,3780 58582,5197 45591,3071 79607,3071 79607,3071 0,0 -4843,114685 86220,128268 91299,13582 919488,214842 1062402,220039 143031,5315 601299,-22441 680079,-66378 118,0 433818,54331 419055,54331 -14646,0 1110708,1922008 1317874,2031023 207047,109016 1419212,-220157 1784055,-154960 364842,65197 1696063,653740 1696063,653740l-246378 3643110c0,0 329409,16536 360472,-1299 -22559,43819 -180945,520984 215079,729331l10039 226181 7441 8164134 -141496 0 0 1417 -816141 0 -209882 1417 590 690945 209882 0 2717 3135355 -209882 0 590 692362 210000 -1299 6737717 -6851 179055 0 -709 -692362 -178937 0 -2834 -3134055 178937 -1418 -473 -690944 -179055 0 -1013504 1299 -80905 0 -3780 -4208858 -709 -705945c0,-118 302126,-160512 301890,-312638l12992 -7626732c389528,-168898 1211457,-516615 1486063,-566221 364607,-66023 1577363,260433 1784410,151063 206811,-109488 1328858,-2033976 1314094,-2033976 14528,-3780 418937,-55276 418937,-55276 78898,43701 537284,70512 680315,64843 142795,-5552 970630,-208701 1061693,-222166 91417,-14055 86339,-128740 86339,-128740 0,0 66378,0 137834,-8386 71575,-8267 71339,-133937 71339,-133937 71693,-2598 170197,-11102 180000,-109370 9685,-98386 -180236,-98031 -180118,-98031z"/>
 </g>
</svg>
